DataType=double
version=3
OpenSimVersion=4.4-2022-07-23-0e9fedc
endheader
time	Glut_Max_l	Glut_Med_l	Rect_Fem_l	Vast_Lat_l	Bice_Fem_l	Tibi_Ant_l	Gast_Med_l	Sol_l	Gast_Lat_l	Pero_Lon_l	Glut_Max_r	Glut_Med_r	Rect_Fem_r	Vast_Lat_r	Bice_Fem_r	Tibi_Ant_r	Gast_Med_r	Sol_r	Gast_Lat_r	Pero_Lon_r
6.597	0.2606201711724318	0.6403045232866111	0.2130061230544966	0.4633000365050085	0.1174674865743724	0.04434315211733861	0.3282917830657492	0.05522065768756229	0.08867652355890865	0.4630996185810932	0.1850133341061067	0.1243715184573021	0.1074335133337673	0.05271511501009053	0.03492420356988322	0.2756635669104171	0.09373630357685253	0.1400811387915568	0.05405442929736417	0.2020597262369989
6.598	0.2582174112541014	0.636313513695866	0.2137508557314098	0.4638352972903416	0.1168872236783637	0.04413392150388201	0.3297355267076115	0.05540809699143186	0.0884044302488074	0.4633655438718015	0.1850035528548352	0.124612133827701	0.106305833872407	0.05218272834490514	0.03399984054581464	0.2768218619780841	0.09369363211732687	0.140821732465039	0.05374270506507681	0.2023291042263844
6.599	0.2558739466847378	0.6323101145805609	0.2144925193485021	0.4643157393856533	0.1163446690275439	0.04393743221707719	0.3311787256109129	0.05559558358852325	0.08813894459900649	0.4635922395854535	0.1850122194946399	0.1248592552936436	0.1051733817003851	0.05164816615443056	0.03308255069866211	0.2779024574958082	0.09364628066406948	0.1415574930979253	0.05346577459235456	0.2025795890346052
6.600000000000001	0.2535898957782182	0.6282981726085372	0.2152302985251445	0.4647406184483922	0.1158391246293938	0.0437537312520531	0.332618464050606	0.05578266322027527	0.08787946169421637	0.4637793036077453	0.185039653558927	0.1251128100963544	0.1040363794144999	0.05111181412527735	0.03217393992827783	0.2789042413115264	0.09359395334017466	0.1422890886349996	0.05322252758340273	0.2028106991022758
6.601	0.2513653166127996	0.6242815021576031	0.2159633830451805	0.4651092471201496	0.1153698695674238	0.0435828497355999	0.3340518897083283	0.05596888652206757	0.08762539086636746	0.4639263866192741	0.1850861527083376	0.1253727213978008	0.1028950661478689	0.0505740622207475	0.03127564960869241	0.2798261466989233	0.09353635538506308	0.1430171813271472	0.05301183871477929	0.2030219738451235
6.602	0.2492002080608608	0.6202638796924831	0.2166909692582302	0.4654209966160812	0.1149361613484965	0.04342480302252153	0.3354762163672926	0.05615380974610956	0.0873761568314181	0.4640331909886082	0.1851519920773632	0.1256389083452435	0.1017496974244223	0.05003530454877889	0.03038935539659125	0.2806671541697758	0.09347319409620071	0.1437424254030284	0.05283256970607868	0.2032129744583366
6.603000000000001	0.2470945108396857	0.6162490382581272	0.217412261451754	0.4656752983330869	0.1145372372513675	0.04327959080632555	0.336888726488492	0.05633699547181838	0.08713120075722132	0.4640994695440893	0.1852374236660467	0.1259112861286716	0.1006005449700026	0.04949593922383907	0.02951676596941451	0.2814262933193531	0.09340417977655792	0.1444654647853626	0.05268357137865518	0.2033832847002665
6.604	0.2450481085820135	0.612240662099339	0.2181264731918146	0.4658716454683351	0.1141723156738918	0.04314719724463751	0.33828677366876	0.05651801330308268	0.08688998126059488	0.464125024239109	0.1853426757779762	0.1261897660328111	0.09944789648217937	0.0489563682229078	0.02865962169230192	0.2821026447023182	0.09332902668493512	0.145186930855912	0.05256368569871173	0.2035325116531447
6.605	0.243060828925386	0.6082423814157485	0.2188328286307861	0.4660095946386885	0.1138405974760037	0.04302759109965577	0.3396677849820245	0.05669644055183201	0.08665197533182917	0.464109704725693	0.1854679525054718	0.1264742554855817	0.09829205536057047	0.0484169972357234	0.02781969321320078	0.2826953417361302	0.09324745398616828	0.1459074402732776	0.05247174780102316	0.2036602864578732
6.606	0.241132444619242	0.6042577672600169	0.2195305637806874	0.4660887674905497	0.1135412673153097	0.04292072589385936	0.3410292632051671	0.05687186290727991	0.08641667918484208	0.4640534068510143	0.1856134332625336	0.1267646581050267	0.09713334039915486	0.04787823550950723	0.02699877998561891	0.2832035726283434	0.09315918669814501	0.1466275928475372	0.05240658798955563	0.2037662650193742
6.607	0.2392626746485605	0.60029032658603	0.2202189277512066	0.4661088522886819	0.1132734949719821	0.04282654008108708	0.3423687889294488	0.05704387509012257	0.08618360903117112	0.46395607109102	0.1857792723658872	0.1270608737467865	0.09597208544176955	0.04734049568842014	0.02619870871871323	0.283626582323617	0.09306395663251092	0.1473479694756336	0.0523670337112931	0.2038501286784718
6.608000000000001	0.2374511853729092	0.5963434974527499	0.2208971839517935	0.466069605471829	0.113036436659662	0.04274495723303798	0.3436840225579118	0.05721208149087844	0.08595230177614081	0.4638176809347795	0.1859655986643316	0.1273627985541148	0.09480863900173243	0.04680419364804414	0.0254213317546331	0.2839636744658001	0.09296150332589977	0.1480691301413009	0.05235191149967286	0.2039115848458471
